<mxfile host="app.diagrams.net" agent="Mozilla/5.0 (Windows NT 10.0; Win64; x64) AppleWebKit/537.36 (KHTML, like Gecko) Chrome/131.0.0.0 Safari/537.36" version="24.7.17">
  <diagram name="Página-1" id="pBLr4X96fwQ2ZjiqfxOG">
    <mxGraphModel grid="1" page="1" gridSize="10" guides="1" tooltips="1" connect="1" arrows="1" fold="1" pageScale="1" pageWidth="827" pageHeight="1169" math="0" shadow="0">
      <root>
        <mxCell id="0" />
        <mxCell id="1" parent="0" />
        <mxCell id="Dk4BscwRTzDZ9IHrKNu3-1" value="Doador" style="whiteSpace=wrap;html=1;align=center;" vertex="1" parent="1">
          <mxGeometry x="360" y="110" width="100" height="40" as="geometry" />
        </mxCell>
        <mxCell id="Dk4BscwRTzDZ9IHrKNu3-3" value="Objeto Doável" style="whiteSpace=wrap;html=1;align=center;" vertex="1" parent="1">
          <mxGeometry x="750" y="420" width="100" height="40" as="geometry" />
        </mxCell>
        <mxCell id="Dk4BscwRTzDZ9IHrKNu3-4" value="Doação" style="whiteSpace=wrap;html=1;align=center;" vertex="1" parent="1">
          <mxGeometry x="360" y="420" width="100" height="40" as="geometry" />
        </mxCell>
        <mxCell id="Dk4BscwRTzDZ9IHrKNu3-5" value="Voluntário" style="whiteSpace=wrap;html=1;align=center;" vertex="1" parent="1">
          <mxGeometry x="495" y="670" width="100" height="40" as="geometry" />
        </mxCell>
        <mxCell id="Dk4BscwRTzDZ9IHrKNu3-6" value="Ponto de Coleta" style="whiteSpace=wrap;html=1;align=center;" vertex="1" parent="1">
          <mxGeometry x="750" y="810" width="100" height="40" as="geometry" />
        </mxCell>
        <mxCell id="Dk4BscwRTzDZ9IHrKNu3-8" value="Campanhas de Doação" style="whiteSpace=wrap;html=1;align=center;" vertex="1" parent="1">
          <mxGeometry x="260" y="800" width="100" height="40" as="geometry" />
        </mxCell>
        <mxCell id="Dk4BscwRTzDZ9IHrKNu3-9" value="Nome" style="ellipse;whiteSpace=wrap;html=1;align=center;perimeterSpacing=0;" vertex="1" parent="1">
          <mxGeometry x="260" y="50" width="100" height="40" as="geometry" />
        </mxCell>
        <mxCell id="Dk4BscwRTzDZ9IHrKNu3-10" value="E-mail" style="ellipse;whiteSpace=wrap;html=1;align=center;perimeterSpacing=0;" vertex="1" parent="1">
          <mxGeometry x="460" y="50" width="100" height="40" as="geometry" />
        </mxCell>
        <mxCell id="Dk4BscwRTzDZ9IHrKNu3-11" value="Telefone" style="ellipse;whiteSpace=wrap;html=1;align=center;perimeterSpacing=0;" vertex="1" parent="1">
          <mxGeometry x="360" y="10" width="100" height="40" as="geometry" />
        </mxCell>
        <mxCell id="Dk4BscwRTzDZ9IHrKNu3-13" value="Endereço" style="ellipse;whiteSpace=wrap;html=1;align=center;perimeterSpacing=0;" vertex="1" parent="1">
          <mxGeometry x="260" y="170" width="100" height="40" as="geometry" />
        </mxCell>
        <mxCell id="Dk4BscwRTzDZ9IHrKNu3-14" value="Beneficiário" style="whiteSpace=wrap;html=1;align=center;" vertex="1" parent="1">
          <mxGeometry x="-50" y="420" width="100" height="40" as="geometry" />
        </mxCell>
        <mxCell id="Dk4BscwRTzDZ9IHrKNu3-15" value="Nome" style="ellipse;whiteSpace=wrap;html=1;align=center;" vertex="1" parent="1">
          <mxGeometry x="-150" y="360" width="100" height="40" as="geometry" />
        </mxCell>
        <mxCell id="Dk4BscwRTzDZ9IHrKNu3-16" value="Idade" style="ellipse;whiteSpace=wrap;html=1;align=center;" vertex="1" parent="1">
          <mxGeometry x="-50" y="320" width="100" height="40" as="geometry" />
        </mxCell>
        <mxCell id="Dk4BscwRTzDZ9IHrKNu3-17" value="Gênero" style="ellipse;whiteSpace=wrap;html=1;align=center;" vertex="1" parent="1">
          <mxGeometry x="50" y="360" width="100" height="40" as="geometry" />
        </mxCell>
        <mxCell id="Dk4BscwRTzDZ9IHrKNu3-19" value="Nome" style="ellipse;whiteSpace=wrap;html=1;align=center;" vertex="1" parent="1">
          <mxGeometry x="650" y="360" width="100" height="40" as="geometry" />
        </mxCell>
        <mxCell id="Dk4BscwRTzDZ9IHrKNu3-22" value="Categoria" style="ellipse;whiteSpace=wrap;html=1;align=center;" vertex="1" parent="1">
          <mxGeometry x="890" y="420" width="100" height="40" as="geometry" />
        </mxCell>
        <mxCell id="Dk4BscwRTzDZ9IHrKNu3-23" value="Descrição" style="ellipse;whiteSpace=wrap;html=1;align=center;" vertex="1" parent="1">
          <mxGeometry x="850" y="360" width="100" height="40" as="geometry" />
        </mxCell>
        <mxCell id="Dk4BscwRTzDZ9IHrKNu3-29" value="Data de Criação" style="ellipse;whiteSpace=wrap;html=1;align=center;" vertex="1" parent="1">
          <mxGeometry x="460" y="360" width="100" height="40" as="geometry" />
        </mxCell>
        <mxCell id="Dk4BscwRTzDZ9IHrKNu3-30" value="Previsão de Entrega" style="ellipse;whiteSpace=wrap;html=1;align=center;" vertex="1" parent="1">
          <mxGeometry x="260" y="360" width="100" height="40" as="geometry" />
        </mxCell>
        <mxCell id="Dk4BscwRTzDZ9IHrKNu3-31" value="Nome" style="ellipse;whiteSpace=wrap;html=1;align=center;" vertex="1" parent="1">
          <mxGeometry x="395" y="720" width="100" height="40" as="geometry" />
        </mxCell>
        <mxCell id="Dk4BscwRTzDZ9IHrKNu3-33" value="Telefone" style="ellipse;whiteSpace=wrap;html=1;align=center;" vertex="1" parent="1">
          <mxGeometry x="595" y="720" width="100" height="40" as="geometry" />
        </mxCell>
        <mxCell id="Dk4BscwRTzDZ9IHrKNu3-34" value="E-mail" style="ellipse;whiteSpace=wrap;html=1;align=center;" vertex="1" parent="1">
          <mxGeometry x="495" y="755" width="100" height="40" as="geometry" />
        </mxCell>
        <mxCell id="Dk4BscwRTzDZ9IHrKNu3-35" value="Endereço" style="ellipse;whiteSpace=wrap;html=1;align=center;" vertex="1" parent="1">
          <mxGeometry x="850" y="870" width="100" height="40" as="geometry" />
        </mxCell>
        <mxCell id="Dk4BscwRTzDZ9IHrKNu3-36" value="Responsável" style="ellipse;whiteSpace=wrap;html=1;align=center;" vertex="1" parent="1">
          <mxGeometry x="650" y="870" width="100" height="40" as="geometry" />
        </mxCell>
        <mxCell id="Dk4BscwRTzDZ9IHrKNu3-38" value="Descrição" style="ellipse;whiteSpace=wrap;html=1;align=center;" vertex="1" parent="1">
          <mxGeometry x="50" y="630" width="100" height="40" as="geometry" />
        </mxCell>
        <mxCell id="Dk4BscwRTzDZ9IHrKNu3-40" value="Descrição" style="ellipse;whiteSpace=wrap;html=1;align=center;" vertex="1" parent="1">
          <mxGeometry x="260" y="910" width="100" height="40" as="geometry" />
        </mxCell>
        <mxCell id="Dk4BscwRTzDZ9IHrKNu3-41" value="Nome" style="ellipse;whiteSpace=wrap;html=1;align=center;" vertex="1" parent="1">
          <mxGeometry x="160" y="740" width="100" height="40" as="geometry" />
        </mxCell>
        <mxCell id="Dk4BscwRTzDZ9IHrKNu3-42" value="Data de Início" style="ellipse;whiteSpace=wrap;html=1;align=center;" vertex="1" parent="1">
          <mxGeometry x="160" y="870" width="100" height="40" as="geometry" />
        </mxCell>
        <mxCell id="Dk4BscwRTzDZ9IHrKNu3-43" value="Data de Término" style="ellipse;whiteSpace=wrap;html=1;align=center;" vertex="1" parent="1">
          <mxGeometry x="360" y="870" width="100" height="40" as="geometry" />
        </mxCell>
        <mxCell id="Dk4BscwRTzDZ9IHrKNu3-44" value="" style="endArrow=none;html=1;rounded=0;exitX=0.5;exitY=1;exitDx=0;exitDy=0;entryX=0.5;entryY=0;entryDx=0;entryDy=0;" edge="1" parent="1" source="Dk4BscwRTzDZ9IHrKNu3-11" target="Dk4BscwRTzDZ9IHrKNu3-1">
          <mxGeometry relative="1" as="geometry">
            <mxPoint x="420" y="50" as="sourcePoint" />
            <mxPoint x="580" y="50" as="targetPoint" />
          </mxGeometry>
        </mxCell>
        <mxCell id="Dk4BscwRTzDZ9IHrKNu3-45" value="" style="endArrow=none;html=1;rounded=0;exitX=1;exitY=1;exitDx=0;exitDy=0;entryX=0;entryY=0;entryDx=0;entryDy=0;" edge="1" parent="1" source="Dk4BscwRTzDZ9IHrKNu3-9" target="Dk4BscwRTzDZ9IHrKNu3-1">
          <mxGeometry relative="1" as="geometry">
            <mxPoint x="420" y="50" as="sourcePoint" />
            <mxPoint x="580" y="50" as="targetPoint" />
          </mxGeometry>
        </mxCell>
        <mxCell id="Dk4BscwRTzDZ9IHrKNu3-46" value="" style="endArrow=none;html=1;rounded=0;exitX=1;exitY=0;exitDx=0;exitDy=0;entryX=0;entryY=1;entryDx=0;entryDy=0;" edge="1" parent="1" source="Dk4BscwRTzDZ9IHrKNu3-1" target="Dk4BscwRTzDZ9IHrKNu3-10">
          <mxGeometry relative="1" as="geometry">
            <mxPoint x="420" y="50" as="sourcePoint" />
            <mxPoint x="580" y="50" as="targetPoint" />
          </mxGeometry>
        </mxCell>
        <mxCell id="Dk4BscwRTzDZ9IHrKNu3-47" value="" style="endArrow=none;html=1;rounded=0;exitX=0;exitY=1;exitDx=0;exitDy=0;entryX=1;entryY=0;entryDx=0;entryDy=0;" edge="1" parent="1" source="Dk4BscwRTzDZ9IHrKNu3-1" target="Dk4BscwRTzDZ9IHrKNu3-13">
          <mxGeometry relative="1" as="geometry">
            <mxPoint x="400" y="140" as="sourcePoint" />
            <mxPoint x="560" y="140" as="targetPoint" />
          </mxGeometry>
        </mxCell>
        <mxCell id="Dk4BscwRTzDZ9IHrKNu3-48" value="" style="endArrow=none;html=1;rounded=0;exitX=1;exitY=1;exitDx=0;exitDy=0;entryX=0;entryY=0;entryDx=0;entryDy=0;" edge="1" parent="1" source="Dk4BscwRTzDZ9IHrKNu3-15" target="Dk4BscwRTzDZ9IHrKNu3-14">
          <mxGeometry relative="1" as="geometry">
            <mxPoint x="-220" y="450" as="sourcePoint" />
            <mxPoint x="-60" y="450" as="targetPoint" />
          </mxGeometry>
        </mxCell>
        <mxCell id="Dk4BscwRTzDZ9IHrKNu3-49" value="" style="endArrow=none;html=1;rounded=0;exitX=0;exitY=1;exitDx=0;exitDy=0;entryX=1;entryY=0;entryDx=0;entryDy=0;" edge="1" parent="1" source="Dk4BscwRTzDZ9IHrKNu3-17" target="Dk4BscwRTzDZ9IHrKNu3-14">
          <mxGeometry relative="1" as="geometry">
            <mxPoint x="-220" y="450" as="sourcePoint" />
            <mxPoint x="-60" y="450" as="targetPoint" />
          </mxGeometry>
        </mxCell>
        <mxCell id="Dk4BscwRTzDZ9IHrKNu3-50" value="" style="endArrow=none;html=1;rounded=0;exitX=0.5;exitY=1;exitDx=0;exitDy=0;entryX=0.5;entryY=0;entryDx=0;entryDy=0;" edge="1" parent="1" source="Dk4BscwRTzDZ9IHrKNu3-16" target="Dk4BscwRTzDZ9IHrKNu3-14">
          <mxGeometry relative="1" as="geometry">
            <mxPoint x="-220" y="450" as="sourcePoint" />
            <mxPoint x="-60" y="450" as="targetPoint" />
          </mxGeometry>
        </mxCell>
        <mxCell id="Dk4BscwRTzDZ9IHrKNu3-51" value="realiza" style="shape=rhombus;perimeter=rhombusPerimeter;whiteSpace=wrap;html=1;align=center;" vertex="1" parent="1">
          <mxGeometry x="350" y="240" width="120" height="60" as="geometry" />
        </mxCell>
        <mxCell id="Dk4BscwRTzDZ9IHrKNu3-52" value="" style="endArrow=none;html=1;rounded=0;exitX=0.5;exitY=1;exitDx=0;exitDy=0;entryX=0.5;entryY=0;entryDx=0;entryDy=0;" edge="1" parent="1" source="Dk4BscwRTzDZ9IHrKNu3-1" target="Dk4BscwRTzDZ9IHrKNu3-51">
          <mxGeometry relative="1" as="geometry">
            <mxPoint x="450" y="300" as="sourcePoint" />
            <mxPoint x="409" y="240" as="targetPoint" />
          </mxGeometry>
        </mxCell>
        <mxCell id="Dk4BscwRTzDZ9IHrKNu3-53" value="" style="endArrow=none;html=1;rounded=0;exitX=0.5;exitY=1;exitDx=0;exitDy=0;entryX=0.5;entryY=0;entryDx=0;entryDy=0;" edge="1" parent="1" source="Dk4BscwRTzDZ9IHrKNu3-51" target="Dk4BscwRTzDZ9IHrKNu3-4">
          <mxGeometry relative="1" as="geometry">
            <mxPoint x="450" y="310" as="sourcePoint" />
            <mxPoint x="610" y="310" as="targetPoint" />
          </mxGeometry>
        </mxCell>
        <mxCell id="Dk4BscwRTzDZ9IHrKNu3-55" value="" style="endArrow=none;html=1;rounded=0;exitX=0;exitY=1;exitDx=0;exitDy=0;entryX=1;entryY=0;entryDx=0;entryDy=0;" edge="1" parent="1" source="Dk4BscwRTzDZ9IHrKNu3-29" target="Dk4BscwRTzDZ9IHrKNu3-4">
          <mxGeometry relative="1" as="geometry">
            <mxPoint x="430" y="420" as="sourcePoint" />
            <mxPoint x="590" y="420" as="targetPoint" />
          </mxGeometry>
        </mxCell>
        <mxCell id="Dk4BscwRTzDZ9IHrKNu3-57" value="" style="endArrow=none;html=1;rounded=0;exitX=0;exitY=0;exitDx=0;exitDy=0;entryX=1;entryY=1;entryDx=0;entryDy=0;" edge="1" parent="1" source="Dk4BscwRTzDZ9IHrKNu3-4" target="Dk4BscwRTzDZ9IHrKNu3-30">
          <mxGeometry relative="1" as="geometry">
            <mxPoint x="430" y="420" as="sourcePoint" />
            <mxPoint x="590" y="420" as="targetPoint" />
          </mxGeometry>
        </mxCell>
        <mxCell id="Dk4BscwRTzDZ9IHrKNu3-61" value="" style="endArrow=none;html=1;rounded=0;exitX=1;exitY=0.5;exitDx=0;exitDy=0;entryX=0;entryY=0.5;entryDx=0;entryDy=0;" edge="1" parent="1" source="Dk4BscwRTzDZ9IHrKNu3-3" target="Dk4BscwRTzDZ9IHrKNu3-22">
          <mxGeometry relative="1" as="geometry">
            <mxPoint x="790" y="450" as="sourcePoint" />
            <mxPoint x="950" y="450" as="targetPoint" />
          </mxGeometry>
        </mxCell>
        <mxCell id="Dk4BscwRTzDZ9IHrKNu3-62" value="" style="endArrow=none;html=1;rounded=0;exitX=0;exitY=1;exitDx=0;exitDy=0;entryX=1;entryY=0;entryDx=0;entryDy=0;" edge="1" parent="1" source="Dk4BscwRTzDZ9IHrKNu3-23" target="Dk4BscwRTzDZ9IHrKNu3-3">
          <mxGeometry relative="1" as="geometry">
            <mxPoint x="790" y="450" as="sourcePoint" />
            <mxPoint x="950" y="450" as="targetPoint" />
          </mxGeometry>
        </mxCell>
        <mxCell id="Dk4BscwRTzDZ9IHrKNu3-63" value="" style="endArrow=none;html=1;rounded=0;exitX=1;exitY=1;exitDx=0;exitDy=0;entryX=0;entryY=0;entryDx=0;entryDy=0;" edge="1" parent="1" source="Dk4BscwRTzDZ9IHrKNu3-19" target="Dk4BscwRTzDZ9IHrKNu3-3">
          <mxGeometry relative="1" as="geometry">
            <mxPoint x="790" y="450" as="sourcePoint" />
            <mxPoint x="950" y="450" as="targetPoint" />
          </mxGeometry>
        </mxCell>
        <mxCell id="Dk4BscwRTzDZ9IHrKNu3-64" value="recebe" style="shape=rhombus;perimeter=rhombusPerimeter;whiteSpace=wrap;html=1;align=center;" vertex="1" parent="1">
          <mxGeometry x="140" y="410" width="120" height="60" as="geometry" />
        </mxCell>
        <mxCell id="Dk4BscwRTzDZ9IHrKNu3-65" value="contém" style="shape=rhombus;perimeter=rhombusPerimeter;whiteSpace=wrap;html=1;align=center;" vertex="1" parent="1">
          <mxGeometry x="550" y="410" width="120" height="60" as="geometry" />
        </mxCell>
        <mxCell id="Dk4BscwRTzDZ9IHrKNu3-66" value="auxilia" style="shape=rhombus;perimeter=rhombusPerimeter;whiteSpace=wrap;html=1;align=center;" vertex="1" parent="1">
          <mxGeometry x="485" y="550" width="120" height="60" as="geometry" />
        </mxCell>
        <mxCell id="Dk4BscwRTzDZ9IHrKNu3-69" value="" style="endArrow=none;html=1;rounded=0;exitX=1;exitY=0.5;exitDx=0;exitDy=0;entryX=0;entryY=0.5;entryDx=0;entryDy=0;" edge="1" parent="1" source="Dk4BscwRTzDZ9IHrKNu3-65" target="Dk4BscwRTzDZ9IHrKNu3-3">
          <mxGeometry relative="1" as="geometry">
            <mxPoint x="660" y="450" as="sourcePoint" />
            <mxPoint x="820" y="450" as="targetPoint" />
          </mxGeometry>
        </mxCell>
        <mxCell id="Dk4BscwRTzDZ9IHrKNu3-71" value="" style="endArrow=none;html=1;rounded=0;exitX=1;exitY=0.5;exitDx=0;exitDy=0;entryX=0;entryY=0.5;entryDx=0;entryDy=0;" edge="1" parent="1" source="Dk4BscwRTzDZ9IHrKNu3-4" target="Dk4BscwRTzDZ9IHrKNu3-65">
          <mxGeometry relative="1" as="geometry">
            <mxPoint x="660" y="450" as="sourcePoint" />
            <mxPoint x="820" y="450" as="targetPoint" />
          </mxGeometry>
        </mxCell>
        <mxCell id="Dk4BscwRTzDZ9IHrKNu3-73" value="" style="endArrow=none;html=1;rounded=0;exitX=1;exitY=0.5;exitDx=0;exitDy=0;entryX=0;entryY=0.5;entryDx=0;entryDy=0;" edge="1" parent="1" source="Dk4BscwRTzDZ9IHrKNu3-64" target="Dk4BscwRTzDZ9IHrKNu3-4">
          <mxGeometry relative="1" as="geometry">
            <mxPoint x="270" y="410" as="sourcePoint" />
            <mxPoint x="430" y="410" as="targetPoint" />
          </mxGeometry>
        </mxCell>
        <mxCell id="Dk4BscwRTzDZ9IHrKNu3-74" value="" style="endArrow=none;html=1;rounded=0;exitX=1;exitY=0.5;exitDx=0;exitDy=0;entryX=0;entryY=0.5;entryDx=0;entryDy=0;" edge="1" parent="1" source="Dk4BscwRTzDZ9IHrKNu3-14" target="Dk4BscwRTzDZ9IHrKNu3-64">
          <mxGeometry relative="1" as="geometry">
            <mxPoint x="220" y="430" as="sourcePoint" />
            <mxPoint x="380" y="430" as="targetPoint" />
          </mxGeometry>
        </mxCell>
        <mxCell id="Dk4BscwRTzDZ9IHrKNu3-76" value="" style="endArrow=none;html=1;rounded=0;exitX=0.75;exitY=1;exitDx=0;exitDy=0;entryX=0.5;entryY=0;entryDx=0;entryDy=0;" edge="1" parent="1" source="Dk4BscwRTzDZ9IHrKNu3-4" target="Dk4BscwRTzDZ9IHrKNu3-66">
          <mxGeometry relative="1" as="geometry">
            <mxPoint x="410" y="630" as="sourcePoint" />
            <mxPoint x="570" y="630" as="targetPoint" />
          </mxGeometry>
        </mxCell>
        <mxCell id="Dk4BscwRTzDZ9IHrKNu3-77" value="" style="endArrow=none;html=1;rounded=0;exitX=0.5;exitY=1;exitDx=0;exitDy=0;entryX=0.5;entryY=0;entryDx=0;entryDy=0;" edge="1" parent="1" source="Dk4BscwRTzDZ9IHrKNu3-5" target="Dk4BscwRTzDZ9IHrKNu3-34">
          <mxGeometry relative="1" as="geometry">
            <mxPoint x="605" y="730" as="sourcePoint" />
            <mxPoint x="765" y="730" as="targetPoint" />
          </mxGeometry>
        </mxCell>
        <mxCell id="Dk4BscwRTzDZ9IHrKNu3-78" value="" style="endArrow=none;html=1;rounded=0;exitX=1;exitY=1;exitDx=0;exitDy=0;entryX=0;entryY=0;entryDx=0;entryDy=0;" edge="1" parent="1" source="Dk4BscwRTzDZ9IHrKNu3-5" target="Dk4BscwRTzDZ9IHrKNu3-33">
          <mxGeometry relative="1" as="geometry">
            <mxPoint x="605" y="730" as="sourcePoint" />
            <mxPoint x="765" y="730" as="targetPoint" />
          </mxGeometry>
        </mxCell>
        <mxCell id="Dk4BscwRTzDZ9IHrKNu3-79" value="" style="endArrow=none;html=1;rounded=0;exitX=0;exitY=1;exitDx=0;exitDy=0;entryX=1;entryY=0;entryDx=0;entryDy=0;" edge="1" parent="1" source="Dk4BscwRTzDZ9IHrKNu3-5" target="Dk4BscwRTzDZ9IHrKNu3-31">
          <mxGeometry relative="1" as="geometry">
            <mxPoint x="605" y="730" as="sourcePoint" />
            <mxPoint x="765" y="730" as="targetPoint" />
          </mxGeometry>
        </mxCell>
        <mxCell id="Dk4BscwRTzDZ9IHrKNu3-80" value="" style="endArrow=none;html=1;rounded=0;exitX=0.5;exitY=1;exitDx=0;exitDy=0;entryX=0.5;entryY=0;entryDx=0;entryDy=0;" edge="1" parent="1" source="Dk4BscwRTzDZ9IHrKNu3-66" target="Dk4BscwRTzDZ9IHrKNu3-5">
          <mxGeometry relative="1" as="geometry">
            <mxPoint x="565" y="675" as="sourcePoint" />
            <mxPoint x="725" y="675" as="targetPoint" />
          </mxGeometry>
        </mxCell>
        <mxCell id="Dk4BscwRTzDZ9IHrKNu3-81" value="armazena" style="shape=rhombus;perimeter=rhombusPerimeter;whiteSpace=wrap;html=1;align=center;" vertex="1" parent="1">
          <mxGeometry x="740" y="550" width="120" height="60" as="geometry" />
        </mxCell>
        <mxCell id="Dk4BscwRTzDZ9IHrKNu3-83" value="" style="endArrow=none;html=1;rounded=0;exitX=0.5;exitY=1;exitDx=0;exitDy=0;entryX=0.5;entryY=0;entryDx=0;entryDy=0;" edge="1" parent="1" source="Dk4BscwRTzDZ9IHrKNu3-81" target="Dk4BscwRTzDZ9IHrKNu3-6">
          <mxGeometry relative="1" as="geometry">
            <mxPoint x="700" y="700" as="sourcePoint" />
            <mxPoint x="730" y="785" as="targetPoint" />
          </mxGeometry>
        </mxCell>
        <mxCell id="Dk4BscwRTzDZ9IHrKNu3-84" value="" style="endArrow=none;html=1;rounded=0;exitX=0.5;exitY=1;exitDx=0;exitDy=0;entryX=0.5;entryY=0;entryDx=0;entryDy=0;" edge="1" parent="1" source="Dk4BscwRTzDZ9IHrKNu3-3" target="Dk4BscwRTzDZ9IHrKNu3-81">
          <mxGeometry relative="1" as="geometry">
            <mxPoint x="740" y="580" as="sourcePoint" />
            <mxPoint x="900" y="580" as="targetPoint" />
          </mxGeometry>
        </mxCell>
        <mxCell id="Dk4BscwRTzDZ9IHrKNu3-85" value="" style="endArrow=none;html=1;rounded=0;exitX=1;exitY=0;exitDx=0;exitDy=0;entryX=0;entryY=1;entryDx=0;entryDy=0;" edge="1" parent="1" source="Dk4BscwRTzDZ9IHrKNu3-36" target="Dk4BscwRTzDZ9IHrKNu3-6">
          <mxGeometry relative="1" as="geometry">
            <mxPoint x="730" y="835" as="sourcePoint" />
            <mxPoint x="890" y="835" as="targetPoint" />
          </mxGeometry>
        </mxCell>
        <mxCell id="Dk4BscwRTzDZ9IHrKNu3-86" value="" style="endArrow=none;html=1;rounded=0;exitX=1;exitY=1;exitDx=0;exitDy=0;entryX=0;entryY=0;entryDx=0;entryDy=0;" edge="1" parent="1" source="Dk4BscwRTzDZ9IHrKNu3-6" target="Dk4BscwRTzDZ9IHrKNu3-35">
          <mxGeometry relative="1" as="geometry">
            <mxPoint x="870" y="875" as="sourcePoint" />
            <mxPoint x="1030" y="875" as="targetPoint" />
          </mxGeometry>
        </mxCell>
        <mxCell id="Dk4BscwRTzDZ9IHrKNu3-88" value="" style="endArrow=none;html=1;rounded=0;exitX=0.5;exitY=1;exitDx=0;exitDy=0;entryX=0.5;entryY=0;entryDx=0;entryDy=0;" edge="1" parent="1" source="Dk4BscwRTzDZ9IHrKNu3-14" target="Dk4BscwRTzDZ9IHrKNu3-91">
          <mxGeometry relative="1" as="geometry">
            <mxPoint x="-150" y="510" as="sourcePoint" />
            <mxPoint y="545" as="targetPoint" />
          </mxGeometry>
        </mxCell>
        <mxCell id="Dk4BscwRTzDZ9IHrKNu3-89" value="" style="endArrow=none;html=1;rounded=0;exitX=0.5;exitY=1;exitDx=0;exitDy=0;entryX=0.5;entryY=0;entryDx=0;entryDy=0;" edge="1" parent="1" source="Dk4BscwRTzDZ9IHrKNu3-91" target="Dk4BscwRTzDZ9IHrKNu3-92">
          <mxGeometry relative="1" as="geometry">
            <mxPoint y="590" as="sourcePoint" />
            <mxPoint y="655" as="targetPoint" />
          </mxGeometry>
        </mxCell>
        <mxCell id="Dk4BscwRTzDZ9IHrKNu3-90" value="" style="endArrow=none;html=1;rounded=0;exitX=1;exitY=0;exitDx=0;exitDy=0;entryX=0;entryY=1;entryDx=0;entryDy=0;" edge="1" parent="1" source="Dk4BscwRTzDZ9IHrKNu3-92" target="Dk4BscwRTzDZ9IHrKNu3-38">
          <mxGeometry relative="1" as="geometry">
            <mxPoint x="50" y="655" as="sourcePoint" />
            <mxPoint x="410" y="685" as="targetPoint" />
          </mxGeometry>
        </mxCell>
        <mxCell id="Dk4BscwRTzDZ9IHrKNu3-91" value="relata" style="shape=rhombus;double=1;perimeter=rhombusPerimeter;whiteSpace=wrap;html=1;align=center;" vertex="1" parent="1">
          <mxGeometry x="-60" y="545" width="120" height="60" as="geometry" />
        </mxCell>
        <mxCell id="Dk4BscwRTzDZ9IHrKNu3-92" value="Necessidade" style="shape=ext;margin=3;double=1;whiteSpace=wrap;html=1;align=center;" vertex="1" parent="1">
          <mxGeometry x="-50" y="680" width="100" height="40" as="geometry" />
        </mxCell>
        <mxCell id="Dk4BscwRTzDZ9IHrKNu3-94" value="promove" style="shape=rhombus;perimeter=rhombusPerimeter;whiteSpace=wrap;html=1;align=center;" vertex="1" parent="1">
          <mxGeometry x="-60" y="790" width="120" height="60" as="geometry" />
        </mxCell>
        <mxCell id="Dk4BscwRTzDZ9IHrKNu3-95" value="" style="endArrow=none;html=1;rounded=0;exitX=1;exitY=0;exitDx=0;exitDy=0;entryX=0;entryY=1;entryDx=0;entryDy=0;" edge="1" parent="1" source="Dk4BscwRTzDZ9IHrKNu3-42" target="Dk4BscwRTzDZ9IHrKNu3-8">
          <mxGeometry relative="1" as="geometry">
            <mxPoint x="70" y="850" as="sourcePoint" />
            <mxPoint x="230" y="850" as="targetPoint" />
          </mxGeometry>
        </mxCell>
        <mxCell id="Dk4BscwRTzDZ9IHrKNu3-96" value="" style="endArrow=none;html=1;rounded=0;exitX=1;exitY=1;exitDx=0;exitDy=0;entryX=0;entryY=0;entryDx=0;entryDy=0;" edge="1" parent="1" source="Dk4BscwRTzDZ9IHrKNu3-8" target="Dk4BscwRTzDZ9IHrKNu3-43">
          <mxGeometry relative="1" as="geometry">
            <mxPoint x="400" y="850" as="sourcePoint" />
            <mxPoint x="560" y="850" as="targetPoint" />
          </mxGeometry>
        </mxCell>
        <mxCell id="Dk4BscwRTzDZ9IHrKNu3-97" value="" style="endArrow=none;html=1;rounded=0;exitX=0.5;exitY=1;exitDx=0;exitDy=0;entryX=0.5;entryY=0;entryDx=0;entryDy=0;" edge="1" parent="1" source="Dk4BscwRTzDZ9IHrKNu3-8" target="Dk4BscwRTzDZ9IHrKNu3-40">
          <mxGeometry relative="1" as="geometry">
            <mxPoint x="460" y="810" as="sourcePoint" />
            <mxPoint x="620" y="810" as="targetPoint" />
            <Array as="points" />
          </mxGeometry>
        </mxCell>
        <mxCell id="Dk4BscwRTzDZ9IHrKNu3-98" value="" style="endArrow=none;html=1;rounded=0;exitX=1;exitY=1;exitDx=0;exitDy=0;entryX=0;entryY=0;entryDx=0;entryDy=0;" edge="1" parent="1" source="Dk4BscwRTzDZ9IHrKNu3-41" target="Dk4BscwRTzDZ9IHrKNu3-8">
          <mxGeometry relative="1" as="geometry">
            <mxPoint x="60" y="820" as="sourcePoint" />
            <mxPoint x="220" y="820" as="targetPoint" />
          </mxGeometry>
        </mxCell>
        <mxCell id="Dk4BscwRTzDZ9IHrKNu3-99" value="" style="endArrow=none;html=1;rounded=0;exitX=1;exitY=0.5;exitDx=0;exitDy=0;entryX=0;entryY=0.5;entryDx=0;entryDy=0;" edge="1" parent="1" source="Dk4BscwRTzDZ9IHrKNu3-94" target="Dk4BscwRTzDZ9IHrKNu3-8">
          <mxGeometry relative="1" as="geometry">
            <mxPoint x="95" y="820" as="sourcePoint" />
            <mxPoint x="415" y="750" as="targetPoint" />
          </mxGeometry>
        </mxCell>
        <mxCell id="Dk4BscwRTzDZ9IHrKNu3-100" value="" style="endArrow=none;html=1;rounded=0;exitX=0.5;exitY=1;exitDx=0;exitDy=0;entryX=0.5;entryY=0;entryDx=0;entryDy=0;" edge="1" parent="1" source="Dk4BscwRTzDZ9IHrKNu3-92" target="Dk4BscwRTzDZ9IHrKNu3-94">
          <mxGeometry relative="1" as="geometry">
            <mxPoint y="720" as="sourcePoint" />
            <mxPoint x="160" y="720" as="targetPoint" />
          </mxGeometry>
        </mxCell>
        <mxCell id="Dk4BscwRTzDZ9IHrKNu3-105" value="1" style="text;html=1;align=center;verticalAlign=middle;resizable=0;points=[];autosize=1;strokeColor=none;fillColor=none;" vertex="1" parent="1">
          <mxGeometry x="405" y="210" width="30" height="30" as="geometry" />
        </mxCell>
        <mxCell id="Dk4BscwRTzDZ9IHrKNu3-106" value="N" style="text;html=1;align=center;verticalAlign=middle;resizable=0;points=[];autosize=1;strokeColor=none;fillColor=none;" vertex="1" parent="1">
          <mxGeometry x="405" y="300" width="30" height="30" as="geometry" />
        </mxCell>
        <mxCell id="Dk4BscwRTzDZ9IHrKNu3-107" value="1" style="text;html=1;align=center;verticalAlign=middle;resizable=0;points=[];autosize=1;strokeColor=none;fillColor=none;" vertex="1" parent="1">
          <mxGeometry x="120" y="415" width="30" height="30" as="geometry" />
        </mxCell>
        <mxCell id="Dk4BscwRTzDZ9IHrKNu3-108" value="N" style="text;html=1;align=center;verticalAlign=middle;resizable=0;points=[];autosize=1;strokeColor=none;fillColor=none;" vertex="1" parent="1">
          <mxGeometry x="250" y="415" width="30" height="30" as="geometry" />
        </mxCell>
        <mxCell id="Dk4BscwRTzDZ9IHrKNu3-109" value="N" style="text;html=1;align=center;verticalAlign=middle;resizable=0;points=[];autosize=1;strokeColor=none;fillColor=none;" vertex="1" parent="1">
          <mxGeometry x="530" y="415" width="30" height="30" as="geometry" />
        </mxCell>
        <mxCell id="Dk4BscwRTzDZ9IHrKNu3-110" value="N" style="text;html=1;align=center;verticalAlign=middle;resizable=0;points=[];autosize=1;strokeColor=none;fillColor=none;" vertex="1" parent="1">
          <mxGeometry x="665" y="415" width="30" height="30" as="geometry" />
        </mxCell>
        <mxCell id="Dk4BscwRTzDZ9IHrKNu3-111" value="N" style="text;html=1;align=center;verticalAlign=middle;resizable=0;points=[];autosize=1;strokeColor=none;fillColor=none;" vertex="1" parent="1">
          <mxGeometry x="540" y="520" width="30" height="30" as="geometry" />
        </mxCell>
        <mxCell id="Dk4BscwRTzDZ9IHrKNu3-112" value="N" style="text;html=1;align=center;verticalAlign=middle;resizable=0;points=[];autosize=1;strokeColor=none;fillColor=none;" vertex="1" parent="1">
          <mxGeometry x="540" y="610" width="30" height="30" as="geometry" />
        </mxCell>
        <mxCell id="Dk4BscwRTzDZ9IHrKNu3-113" value="N" style="text;html=1;align=center;verticalAlign=middle;resizable=0;points=[];autosize=1;strokeColor=none;fillColor=none;" vertex="1" parent="1">
          <mxGeometry x="793" y="520" width="30" height="30" as="geometry" />
        </mxCell>
        <mxCell id="Dk4BscwRTzDZ9IHrKNu3-114" value="1" style="text;html=1;align=center;verticalAlign=middle;resizable=0;points=[];autosize=1;strokeColor=none;fillColor=none;" vertex="1" parent="1">
          <mxGeometry x="793" y="610" width="30" height="30" as="geometry" />
        </mxCell>
        <mxCell id="Dk4BscwRTzDZ9IHrKNu3-118" value="1" style="text;html=1;align=center;verticalAlign=middle;resizable=0;points=[];autosize=1;strokeColor=none;fillColor=none;" vertex="1" parent="1">
          <mxGeometry x="-5" y="515" width="30" height="30" as="geometry" />
        </mxCell>
        <mxCell id="Dk4BscwRTzDZ9IHrKNu3-119" value="N" style="text;html=1;align=center;verticalAlign=middle;resizable=0;points=[];autosize=1;strokeColor=none;fillColor=none;" vertex="1" parent="1">
          <mxGeometry x="-5" y="605" width="30" height="30" as="geometry" />
        </mxCell>
        <mxCell id="08XluBNc2gTiM_8n-Gxd-2" value="possui" style="shape=rhombus;perimeter=rhombusPerimeter;whiteSpace=wrap;html=1;align=center;" vertex="1" parent="1">
          <mxGeometry x="250" y="550" width="120" height="60" as="geometry" />
        </mxCell>
        <mxCell id="08XluBNc2gTiM_8n-Gxd-3" value="" style="endArrow=none;html=1;rounded=0;exitX=0.25;exitY=1;exitDx=0;exitDy=0;entryX=0.5;entryY=0;entryDx=0;entryDy=0;" edge="1" parent="1" source="Dk4BscwRTzDZ9IHrKNu3-4" target="08XluBNc2gTiM_8n-Gxd-2">
          <mxGeometry relative="1" as="geometry">
            <mxPoint x="210" y="530" as="sourcePoint" />
            <mxPoint x="370" y="530" as="targetPoint" />
          </mxGeometry>
        </mxCell>
        <mxCell id="08XluBNc2gTiM_8n-Gxd-4" value="" style="endArrow=none;html=1;rounded=0;exitX=0.5;exitY=1;exitDx=0;exitDy=0;entryX=0.5;entryY=0;entryDx=0;entryDy=0;" edge="1" parent="1" source="08XluBNc2gTiM_8n-Gxd-2" target="Dk4BscwRTzDZ9IHrKNu3-8">
          <mxGeometry relative="1" as="geometry">
            <mxPoint x="220" y="710" as="sourcePoint" />
            <mxPoint x="380" y="710" as="targetPoint" />
          </mxGeometry>
        </mxCell>
        <mxCell id="08XluBNc2gTiM_8n-Gxd-5" value="1" style="text;html=1;align=center;verticalAlign=middle;resizable=0;points=[];autosize=1;strokeColor=none;fillColor=none;" vertex="1" parent="1">
          <mxGeometry x="50" y="790" width="30" height="30" as="geometry" />
        </mxCell>
        <mxCell id="08XluBNc2gTiM_8n-Gxd-6" value="N" style="text;html=1;align=center;verticalAlign=middle;resizable=0;points=[];autosize=1;strokeColor=none;fillColor=none;" vertex="1" parent="1">
          <mxGeometry x="-5" y="760" width="30" height="30" as="geometry" />
        </mxCell>
        <mxCell id="08XluBNc2gTiM_8n-Gxd-7" value="1" style="text;html=1;align=center;verticalAlign=middle;resizable=0;points=[];autosize=1;strokeColor=none;fillColor=none;" vertex="1" parent="1">
          <mxGeometry x="284" y="605" width="30" height="30" as="geometry" />
        </mxCell>
        <mxCell id="08XluBNc2gTiM_8n-Gxd-8" value="N" style="text;html=1;align=center;verticalAlign=middle;resizable=0;points=[];autosize=1;strokeColor=none;fillColor=none;" vertex="1" parent="1">
          <mxGeometry x="284" y="520" width="30" height="30" as="geometry" />
        </mxCell>
        <mxCell id="08XluBNc2gTiM_8n-Gxd-12" value="ID" style="ellipse;whiteSpace=wrap;html=1;align=center;fontStyle=4;" vertex="1" parent="1">
          <mxGeometry x="-150" y="480" width="100" height="40" as="geometry" />
        </mxCell>
        <mxCell id="08XluBNc2gTiM_8n-Gxd-13" value="" style="endArrow=none;html=1;rounded=0;exitX=0;exitY=1;exitDx=0;exitDy=0;entryX=1;entryY=0;entryDx=0;entryDy=0;" edge="1" parent="1" source="Dk4BscwRTzDZ9IHrKNu3-14" target="08XluBNc2gTiM_8n-Gxd-12">
          <mxGeometry relative="1" as="geometry">
            <mxPoint x="20" y="470" as="sourcePoint" />
            <mxPoint x="180" y="470" as="targetPoint" />
          </mxGeometry>
        </mxCell>
        <mxCell id="08XluBNc2gTiM_8n-Gxd-14" value="ID" style="ellipse;whiteSpace=wrap;html=1;align=center;fontStyle=4;" vertex="1" parent="1">
          <mxGeometry x="460" y="170" width="100" height="40" as="geometry" />
        </mxCell>
        <mxCell id="08XluBNc2gTiM_8n-Gxd-15" value="" style="endArrow=none;html=1;rounded=0;exitX=1;exitY=1;exitDx=0;exitDy=0;entryX=0;entryY=0;entryDx=0;entryDy=0;" edge="1" parent="1" source="Dk4BscwRTzDZ9IHrKNu3-1" target="08XluBNc2gTiM_8n-Gxd-14">
          <mxGeometry relative="1" as="geometry">
            <mxPoint x="520" y="140" as="sourcePoint" />
            <mxPoint x="680" y="140" as="targetPoint" />
          </mxGeometry>
        </mxCell>
        <mxCell id="08XluBNc2gTiM_8n-Gxd-16" value="ID" style="ellipse;whiteSpace=wrap;html=1;align=center;fontStyle=4;" vertex="1" parent="1">
          <mxGeometry x="360" y="505" width="100" height="40" as="geometry" />
        </mxCell>
        <mxCell id="08XluBNc2gTiM_8n-Gxd-17" value="" style="endArrow=none;html=1;rounded=0;exitX=0.5;exitY=1;exitDx=0;exitDy=0;entryX=0.5;entryY=0;entryDx=0;entryDy=0;" edge="1" parent="1" source="Dk4BscwRTzDZ9IHrKNu3-4" target="08XluBNc2gTiM_8n-Gxd-16">
          <mxGeometry relative="1" as="geometry">
            <mxPoint x="380" y="580" as="sourcePoint" />
            <mxPoint x="540" y="580" as="targetPoint" />
          </mxGeometry>
        </mxCell>
        <mxCell id="08XluBNc2gTiM_8n-Gxd-18" value="ID" style="ellipse;whiteSpace=wrap;html=1;align=center;fontStyle=4;" vertex="1" parent="1">
          <mxGeometry x="750" y="320" width="100" height="40" as="geometry" />
        </mxCell>
        <mxCell id="08XluBNc2gTiM_8n-Gxd-19" value="" style="endArrow=none;html=1;rounded=0;exitX=0.5;exitY=1;exitDx=0;exitDy=0;entryX=0.5;entryY=0;entryDx=0;entryDy=0;" edge="1" parent="1" source="08XluBNc2gTiM_8n-Gxd-18" target="Dk4BscwRTzDZ9IHrKNu3-3">
          <mxGeometry relative="1" as="geometry">
            <mxPoint x="890" y="290" as="sourcePoint" />
            <mxPoint x="1050" y="290" as="targetPoint" />
          </mxGeometry>
        </mxCell>
        <mxCell id="08XluBNc2gTiM_8n-Gxd-20" value="ID" style="ellipse;whiteSpace=wrap;html=1;align=center;fontStyle=4;" vertex="1" parent="1">
          <mxGeometry x="605" y="610" width="100" height="40" as="geometry" />
        </mxCell>
        <mxCell id="08XluBNc2gTiM_8n-Gxd-21" value="" style="endArrow=none;html=1;rounded=0;exitX=0;exitY=1;exitDx=0;exitDy=0;entryX=1;entryY=0;entryDx=0;entryDy=0;" edge="1" parent="1" source="08XluBNc2gTiM_8n-Gxd-20" target="Dk4BscwRTzDZ9IHrKNu3-5">
          <mxGeometry relative="1" as="geometry">
            <mxPoint x="630" y="690" as="sourcePoint" />
            <mxPoint x="790" y="690" as="targetPoint" />
          </mxGeometry>
        </mxCell>
        <mxCell id="08XluBNc2gTiM_8n-Gxd-22" value="ID" style="ellipse;whiteSpace=wrap;html=1;align=center;fontStyle=4;" vertex="1" parent="1">
          <mxGeometry x="750" y="920" width="100" height="40" as="geometry" />
        </mxCell>
        <mxCell id="08XluBNc2gTiM_8n-Gxd-23" value="" style="endArrow=none;html=1;rounded=0;exitX=0.5;exitY=1;exitDx=0;exitDy=0;entryX=0.5;entryY=0;entryDx=0;entryDy=0;" edge="1" parent="1" source="Dk4BscwRTzDZ9IHrKNu3-6" target="08XluBNc2gTiM_8n-Gxd-22">
          <mxGeometry relative="1" as="geometry">
            <mxPoint x="620" y="1000" as="sourcePoint" />
            <mxPoint x="780" y="1000" as="targetPoint" />
          </mxGeometry>
        </mxCell>
        <mxCell id="08XluBNc2gTiM_8n-Gxd-24" value="ID" style="ellipse;whiteSpace=wrap;html=1;align=center;fontStyle=4;" vertex="1" parent="1">
          <mxGeometry x="-150" y="630" width="100" height="40" as="geometry" />
        </mxCell>
        <mxCell id="08XluBNc2gTiM_8n-Gxd-25" value="" style="endArrow=none;html=1;rounded=0;entryX=0;entryY=0;entryDx=0;entryDy=0;exitX=1;exitY=1;exitDx=0;exitDy=0;" edge="1" parent="1" source="08XluBNc2gTiM_8n-Gxd-24" target="Dk4BscwRTzDZ9IHrKNu3-92">
          <mxGeometry relative="1" as="geometry">
            <mxPoint x="-240" y="720" as="sourcePoint" />
            <mxPoint x="-80" y="720" as="targetPoint" />
          </mxGeometry>
        </mxCell>
        <mxCell id="08XluBNc2gTiM_8n-Gxd-26" value="ID" style="ellipse;whiteSpace=wrap;html=1;align=center;fontStyle=4;" vertex="1" parent="1">
          <mxGeometry x="385" y="800" width="100" height="40" as="geometry" />
        </mxCell>
        <mxCell id="08XluBNc2gTiM_8n-Gxd-27" value="" style="endArrow=none;html=1;rounded=0;entryX=0;entryY=0.5;entryDx=0;entryDy=0;exitX=1;exitY=0.5;exitDx=0;exitDy=0;" edge="1" parent="1" source="Dk4BscwRTzDZ9IHrKNu3-8" target="08XluBNc2gTiM_8n-Gxd-26">
          <mxGeometry relative="1" as="geometry">
            <mxPoint x="320" y="680" as="sourcePoint" />
            <mxPoint x="480" y="680" as="targetPoint" />
          </mxGeometry>
        </mxCell>
        <mxCell id="08XluBNc2gTiM_8n-Gxd-28" value="Descrição" style="ellipse;whiteSpace=wrap;html=1;align=center;" vertex="1" parent="1">
          <mxGeometry x="50" y="480" width="100" height="40" as="geometry" />
        </mxCell>
        <mxCell id="08XluBNc2gTiM_8n-Gxd-29" value="" style="endArrow=none;html=1;rounded=0;exitX=1;exitY=1;exitDx=0;exitDy=0;entryX=0;entryY=0;entryDx=0;entryDy=0;" edge="1" parent="1" source="Dk4BscwRTzDZ9IHrKNu3-14" target="08XluBNc2gTiM_8n-Gxd-28">
          <mxGeometry relative="1" as="geometry">
            <mxPoint x="70" y="540" as="sourcePoint" />
            <mxPoint x="230" y="540" as="targetPoint" />
          </mxGeometry>
        </mxCell>
      </root>
    </mxGraphModel>
  </diagram>
</mxfile>
